# xmcd
#
# Track frame offsets: 
#        150
#        14481
#        32868
#        57492
#        72495
#        92934
#        114330
#        132384
#        151418
#        169909
#
# Disc length: 2496 seconds
#
# Revision: 0
# Processed by: cddbd v1.5.2PL0 Copyright (c) Steve Scherf et al.
# Submitted via: ExactAudioCopyFreeDBPlugin 1.0
#
DISCID=8e09be0a
DTITLE=Antry - Devil Don’t Care
DYEAR=2017
DGENRE=Blues
TTITLE0=Devil Don’t Care
TTITLE1=Always With Me
TTITLE2=How Far Down
TTITLE3=Fishin’
TTITLE4=Prince Of Peace
TTITLE5=Borrowed Angels
TTITLE6=Devil Gone Fishin’
TTITLE7=Sending Me Angels
TTITLE8=Get Up
TTITLE9=Special Angel
EXTD=
EXTT0=
EXTT1=
EXTT2=
EXTT3=
EXTT4=
EXTT5=
EXTT6=
EXTT7=
EXTT8=
EXTT9=
PLAYORDER=
